<mxfile host="app.diagrams.net" modified="2023-04-17T21:02:00.215Z" agent="Mozilla/5.0 (X11; Linux x86_64) AppleWebKit/537.36 (KHTML, like Gecko) Chrome/110.0.0.0 Safari/537.36" etag="aOTXisIvRTyPFYHgZxA6" version="21.1.8" type="github">
  <diagram id="pa1MhY5LQwv4QzBGR7po" name="Page-1">
    <mxGraphModel dx="1505" dy="2575" grid="1" gridSize="10" guides="1" tooltips="1" connect="1" arrows="1" fold="1" page="1" pageScale="1" pageWidth="1200" pageHeight="1600" math="0" shadow="0">
      <root>
        <mxCell id="0" />
        <mxCell id="1" parent="0" />
        <mxCell id="BOUHQt-WAckXpttMmlNX-43" value="&lt;span style=&quot;background-color: initial; text-align: left;&quot;&gt;&lt;span style=&quot;font-size: 24px;&quot;&gt;&lt;b&gt;vention_rails&lt;br&gt;&lt;ul&gt;&lt;li&gt;&lt;span style=&quot;background-color: initial; font-size: 16px; text-align: left;&quot;&gt;Demo (https://vention-demo.herokuapp.com/dashboard)&lt;/span&gt;&lt;/li&gt;&lt;li&gt;&lt;span style=&quot;background-color: initial; font-size: 16px; text-align: left;&quot;&gt;Production (vention.io)&lt;/span&gt;&lt;/li&gt;&lt;/ul&gt;&lt;/b&gt;&lt;/span&gt;&lt;/span&gt;" style="rounded=1;whiteSpace=wrap;html=1;fontSize=32;horizontal=1;verticalAlign=top;fillColor=#d5e8d4;strokeColor=#82b366;" parent="1" vertex="1">
          <mxGeometry x="10" y="10" width="800" height="1960" as="geometry" />
        </mxCell>
        <mxCell id="BOUHQt-WAckXpttMmlNX-37" value="&lt;span style=&quot;background-color: initial; text-align: left;&quot;&gt;&lt;span style=&quot;font-size: 24px;&quot;&gt;&lt;b&gt;AWS EC2 Instance on Demo or Prod.&lt;br&gt;&lt;ul&gt;&lt;li&gt;&lt;span style=&quot;background-color: initial; font-size: 16px; text-align: left;&quot;&gt;Demo (machine name &quot;systems&quot;)&lt;/span&gt;&lt;/li&gt;&lt;li&gt;&lt;span style=&quot;background-color: initial; font-size: 16px; text-align: left;&quot;&gt;Production (machine name &quot;gfx&quot;)&lt;/span&gt;&lt;/li&gt;&lt;/ul&gt;&lt;/b&gt;&lt;/span&gt;&lt;/span&gt;" style="rounded=1;whiteSpace=wrap;html=1;fontSize=32;horizontal=1;verticalAlign=top;fillColor=#d5e8d4;strokeColor=#82b366;" parent="1" vertex="1">
          <mxGeometry x="820" y="10" width="500" height="1960" as="geometry" />
        </mxCell>
        <mxCell id="5oR6hSTxiuA2qhFnlqOt-3" value="&lt;h1&gt;vention_assembler (MachineBuilder)&lt;/h1&gt;&lt;ul&gt;&lt;li style=&quot;text-align: left&quot;&gt;vention CAD to create assemblies&lt;/li&gt;&lt;li style=&quot;text-align: left&quot;&gt;contains tools for robot manipulation and TDOF/RDOF manipulation&lt;/li&gt;&lt;li style=&quot;text-align: left&quot;&gt;Simulation engine lives here&lt;/li&gt;&lt;/ul&gt;&lt;p&gt;&lt;/p&gt;" style="whiteSpace=wrap;html=1;fillColor=#f8cecc;strokeColor=#b85450;verticalAlign=top;" parent="1" vertex="1">
          <mxGeometry x="40" y="150" width="740" height="1700" as="geometry" />
        </mxCell>
        <mxCell id="5oR6hSTxiuA2qhFnlqOt-4" value="&lt;h1&gt;mm-machine-logic (MachineLogic)&lt;/h1&gt;&lt;div style=&quot;text-align: left&quot;&gt;&lt;ul&gt;&lt;li&gt;&lt;span&gt;Entry point for Actuator Programming.&lt;/span&gt;&lt;/li&gt;&lt;li&gt;&lt;span&gt;UI entry point for Simulation.&lt;/span&gt;&lt;/li&gt;&lt;/ul&gt;&lt;p&gt;&lt;/p&gt;&lt;p&gt;&lt;/p&gt;&lt;/div&gt;" style="rounded=0;whiteSpace=wrap;html=1;fillColor=#fff2cc;strokeColor=#d6b656;verticalAlign=top;" parent="1" vertex="1">
          <mxGeometry x="65" y="270" width="695" height="750" as="geometry" />
        </mxCell>
        <mxCell id="BOUHQt-WAckXpttMmlNX-3" value="Actuator simulation (detailed look)" style="rounded=1;whiteSpace=wrap;html=1;fontStyle=1;fontSize=32;fillColor=#6a00ff;fontColor=#ffffff;strokeColor=#3700CC;" parent="1" vertex="1">
          <mxGeometry x="80" y="-90" width="1180" height="60" as="geometry" />
        </mxCell>
        <mxCell id="BOUHQt-WAckXpttMmlNX-15" value="&lt;h1&gt;mm-execution-engine&lt;/h1&gt;&lt;div&gt;&lt;ul&gt;&lt;li style=&quot;text-align: left&quot;&gt;Responsible for executing scripts that were created via MachineLogic&lt;/li&gt;&lt;li style=&quot;text-align: left&quot;&gt;&quot;run-time&quot; sequencer.&lt;/li&gt;&lt;/ul&gt;&lt;/div&gt;" style="rounded=0;whiteSpace=wrap;html=1;verticalAlign=top;fillColor=#ffe6cc;strokeColor=#d79b00;" parent="1" vertex="1">
          <mxGeometry x="865" y="270" width="410" height="750" as="geometry" />
        </mxCell>
        <mxCell id="Htf-oD9SOvGJnkaf1L8Y-1" value="" style="endArrow=classic;startArrow=classic;html=1;rounded=0;exitX=1.003;exitY=0.147;exitDx=0;exitDy=0;exitPerimeter=0;" parent="1" source="5oR6hSTxiuA2qhFnlqOt-4" edge="1">
          <mxGeometry width="50" height="50" relative="1" as="geometry">
            <mxPoint x="590" y="370" as="sourcePoint" />
            <mxPoint x="870" y="380" as="targetPoint" />
            <Array as="points">
              <mxPoint x="800" y="381" />
            </Array>
          </mxGeometry>
        </mxCell>
        <mxCell id="QDnu9C698AicZpKBKplf-1" value="&lt;div style=&quot;font-family: &amp;quot;Droid Sans Mono&amp;quot;, &amp;quot;monospace&amp;quot;, monospace; font-size: 14px; line-height: 19px;&quot;&gt;&lt;b&gt;ilib_ml_core.ApplicationBase.prototype.play&lt;/b&gt;&lt;/div&gt;&lt;div style=&quot;font-family: &amp;quot;Droid Sans Mono&amp;quot;, &amp;quot;monospace&amp;quot;, monospace; font-size: 14px; line-height: 19px;&quot;&gt;(activates when clicking the play button)&lt;/div&gt;" style="rounded=0;whiteSpace=wrap;html=1;fillColor=#b1ddf0;strokeColor=#10739e;" vertex="1" parent="1">
          <mxGeometry x="200" y="380" width="410" height="80" as="geometry" />
        </mxCell>
        <mxCell id="QDnu9C698AicZpKBKplf-2" value="" style="endArrow=classic;html=1;rounded=0;exitX=0.5;exitY=1;exitDx=0;exitDy=0;" edge="1" parent="1" source="QDnu9C698AicZpKBKplf-1" target="QDnu9C698AicZpKBKplf-3">
          <mxGeometry width="50" height="50" relative="1" as="geometry">
            <mxPoint x="620" y="520" as="sourcePoint" />
            <mxPoint x="670" y="470" as="targetPoint" />
          </mxGeometry>
        </mxCell>
        <mxCell id="QDnu9C698AicZpKBKplf-3" value="&lt;div style=&quot;font-family: &amp;quot;Droid Sans Mono&amp;quot;, &amp;quot;monospace&amp;quot;, monospace; font-size: 14px; line-height: 19px;&quot;&gt;&lt;b&gt;preprocessCadPlay&lt;/b&gt;&lt;/div&gt;&lt;div style=&quot;font-family: &amp;quot;Droid Sans Mono&amp;quot;, &amp;quot;monospace&amp;quot;, monospace; font-size: 14px; line-height: 19px;&quot;&gt;&lt;br&gt;&lt;/div&gt;&lt;div style=&quot;text-align: left; font-family: &amp;quot;Droid Sans Mono&amp;quot;, &amp;quot;monospace&amp;quot;, monospace; font-size: 14px; line-height: 19px;&quot;&gt;- Checks for simulation errors.&lt;br&gt;&lt;/div&gt;&lt;div style=&quot;text-align: left; font-family: &amp;quot;Droid Sans Mono&amp;quot;, &amp;quot;monospace&amp;quot;, monospace; font-size: 14px; line-height: 19px;&quot;&gt;- Performs pre-simulation calculations:&lt;/div&gt;&lt;div style=&quot;text-align: left; font-family: &amp;quot;Droid Sans Mono&amp;quot;, &amp;quot;monospace&amp;quot;, monospace; font-size: 14px; line-height: 19px;&quot;&gt;1.&amp;nbsp;&lt;span style=&quot;background-color: initial;&quot;&gt;Actuator initial positions&lt;/span&gt;&lt;/div&gt;&lt;div style=&quot;text-align: left; font-family: &amp;quot;Droid Sans Mono&amp;quot;, &amp;quot;monospace&amp;quot;, monospace; font-size: 14px; line-height: 19px;&quot;&gt;2. Initial sensor states&lt;/div&gt;&lt;div style=&quot;text-align: left; font-family: &amp;quot;Droid Sans Mono&amp;quot;, &amp;quot;monospace&amp;quot;, monospace; font-size: 14px; line-height: 19px;&quot;&gt;3. Initial input and output states&lt;/div&gt;" style="rounded=0;whiteSpace=wrap;html=1;fillColor=#b1ddf0;strokeColor=#10739e;" vertex="1" parent="1">
          <mxGeometry x="200" y="520" width="410" height="190" as="geometry" />
        </mxCell>
        <mxCell id="QDnu9C698AicZpKBKplf-5" value="&lt;div style=&quot;font-family: &amp;quot;Droid Sans Mono&amp;quot;, &amp;quot;monospace&amp;quot;, monospace; font-size: 14px; line-height: 19px;&quot;&gt;&lt;b&gt;setState&lt;/b&gt;&lt;/div&gt;&lt;div style=&quot;font-family: &amp;quot;Droid Sans Mono&amp;quot;, &amp;quot;monospace&amp;quot;, monospace; font-size: 14px; line-height: 19px;&quot;&gt;&lt;br&gt;&lt;/div&gt;&lt;div style=&quot;text-align: left; font-family: &amp;quot;Droid Sans Mono&amp;quot;, &amp;quot;monospace&amp;quot;, monospace; font-size: 14px; line-height: 19px;&quot;&gt;- Receives data from mm-execution-engine at a continuously (at a time interval)&lt;br&gt;&lt;/div&gt;&lt;div style=&quot;text-align: left; font-family: &amp;quot;Droid Sans Mono&amp;quot;, &amp;quot;monospace&amp;quot;, monospace; font-size: 14px; line-height: 19px;&quot;&gt;- Calls ./simulation/simulate if the data contains any actuator instructions&lt;/div&gt;" style="rounded=0;whiteSpace=wrap;html=1;fillColor=#b1ddf0;strokeColor=#10739e;" vertex="1" parent="1">
          <mxGeometry x="120" y="760" width="600" height="190" as="geometry" />
        </mxCell>
        <mxCell id="QDnu9C698AicZpKBKplf-6" value="" style="endArrow=classic;html=1;rounded=0;exitX=0.5;exitY=1;exitDx=0;exitDy=0;entryX=0.468;entryY=0.009;entryDx=0;entryDy=0;entryPerimeter=0;" edge="1" parent="1" target="QDnu9C698AicZpKBKplf-5">
          <mxGeometry width="50" height="50" relative="1" as="geometry">
            <mxPoint x="400" y="710" as="sourcePoint" />
            <mxPoint x="400" y="770" as="targetPoint" />
          </mxGeometry>
        </mxCell>
        <mxCell id="QDnu9C698AicZpKBKplf-7" value="" style="endArrow=classic;html=1;rounded=0;exitX=1;exitY=0.5;exitDx=0;exitDy=0;entryX=0.005;entryY=0.459;entryDx=0;entryDy=0;entryPerimeter=0;" edge="1" parent="1" source="QDnu9C698AicZpKBKplf-3" target="BOUHQt-WAckXpttMmlNX-15">
          <mxGeometry width="50" height="50" relative="1" as="geometry">
            <mxPoint x="620" y="750" as="sourcePoint" />
            <mxPoint x="670" y="700" as="targetPoint" />
          </mxGeometry>
        </mxCell>
        <mxCell id="QDnu9C698AicZpKBKplf-10" value="" style="edgeStyle=segmentEdgeStyle;endArrow=classic;html=1;curved=0;rounded=0;endSize=8;startSize=8;" edge="1" parent="1">
          <mxGeometry width="50" height="50" relative="1" as="geometry">
            <mxPoint x="800" y="930" as="sourcePoint" />
            <mxPoint x="860" y="870" as="targetPoint" />
          </mxGeometry>
        </mxCell>
        <mxCell id="QDnu9C698AicZpKBKplf-11" value="" style="edgeStyle=elbowEdgeStyle;elbow=horizontal;endArrow=classic;html=1;curved=0;rounded=0;endSize=8;startSize=8;" edge="1" parent="1">
          <mxGeometry width="50" height="50" relative="1" as="geometry">
            <mxPoint x="680" y="870" as="sourcePoint" />
            <mxPoint x="800" y="930" as="targetPoint" />
          </mxGeometry>
        </mxCell>
        <mxCell id="QDnu9C698AicZpKBKplf-12" value="" style="edgeStyle=elbowEdgeStyle;elbow=horizontal;endArrow=classic;html=1;curved=0;rounded=0;endSize=8;startSize=8;" edge="1" parent="1">
          <mxGeometry width="50" height="50" relative="1" as="geometry">
            <mxPoint x="920" y="870" as="sourcePoint" />
            <mxPoint x="800" y="810" as="targetPoint" />
          </mxGeometry>
        </mxCell>
        <mxCell id="QDnu9C698AicZpKBKplf-13" value="" style="edgeStyle=segmentEdgeStyle;endArrow=classic;html=1;curved=0;rounded=0;endSize=8;startSize=8;" edge="1" parent="1">
          <mxGeometry width="50" height="50" relative="1" as="geometry">
            <mxPoint x="810" y="810" as="sourcePoint" />
            <mxPoint x="740" y="870" as="targetPoint" />
          </mxGeometry>
        </mxCell>
        <mxCell id="QDnu9C698AicZpKBKplf-14" value="" style="endArrow=classic;html=1;rounded=0;exitX=0.474;exitY=0.999;exitDx=0;exitDy=0;exitPerimeter=0;entryX=0.49;entryY=0.003;entryDx=0;entryDy=0;entryPerimeter=0;" edge="1" parent="1" source="QDnu9C698AicZpKBKplf-5" target="QDnu9C698AicZpKBKplf-15">
          <mxGeometry width="50" height="50" relative="1" as="geometry">
            <mxPoint x="620" y="1030" as="sourcePoint" />
            <mxPoint x="404" y="1200" as="targetPoint" />
          </mxGeometry>
        </mxCell>
        <mxCell id="QDnu9C698AicZpKBKplf-15" value="&lt;div style=&quot;font-family: &amp;quot;Droid Sans Mono&amp;quot;, &amp;quot;monospace&amp;quot;, monospace; font-size: 14px; line-height: 19px;&quot;&gt;&lt;b&gt;simulate&lt;/b&gt;&lt;/div&gt;&lt;div style=&quot;font-family: &amp;quot;Droid Sans Mono&amp;quot;, &amp;quot;monospace&amp;quot;, monospace; font-size: 14px; line-height: 19px;&quot;&gt;&lt;br&gt;&lt;/div&gt;&lt;div style=&quot;text-align: left; font-family: &amp;quot;Droid Sans Mono&amp;quot;, &amp;quot;monospace&amp;quot;, monospace; font-size: 14px; line-height: 19px;&quot;&gt;- Uses the simulation data received from the execution engine to start the animations of the actuators that should be moved now&lt;br&gt;&lt;/div&gt;&lt;div style=&quot;text-align: left; font-family: &amp;quot;Droid Sans Mono&amp;quot;, &amp;quot;monospace&amp;quot;, monospace; font-size: 14px; line-height: 19px;&quot;&gt;&lt;br&gt;&lt;/div&gt;&lt;div style=&quot;text-align: left; font-family: &amp;quot;Droid Sans Mono&amp;quot;, &amp;quot;monospace&amp;quot;, monospace; font-size: 14px; line-height: 19px;&quot;&gt;&lt;br&gt;&lt;/div&gt;&lt;div style=&quot;text-align: left; font-family: &amp;quot;Droid Sans Mono&amp;quot;, &amp;quot;monospace&amp;quot;, monospace; font-size: 14px; line-height: 19px;&quot;&gt;&lt;br&gt;&lt;/div&gt;&lt;div style=&quot;text-align: left; font-family: &amp;quot;Droid Sans Mono&amp;quot;, &amp;quot;monospace&amp;quot;, monospace; font-size: 14px; line-height: 19px;&quot;&gt;&lt;br&gt;&lt;/div&gt;&lt;div style=&quot;text-align: left; font-family: &amp;quot;Droid Sans Mono&amp;quot;, &amp;quot;monospace&amp;quot;, monospace; font-size: 14px; line-height: 19px;&quot;&gt;&lt;br&gt;&lt;/div&gt;&lt;div style=&quot;text-align: left; font-family: &amp;quot;Droid Sans Mono&amp;quot;, &amp;quot;monospace&amp;quot;, monospace; font-size: 14px; line-height: 19px;&quot;&gt;&lt;br&gt;&lt;/div&gt;&lt;div style=&quot;text-align: left; font-family: &amp;quot;Droid Sans Mono&amp;quot;, &amp;quot;monospace&amp;quot;, monospace; font-size: 14px; line-height: 19px;&quot;&gt;&lt;br&gt;&lt;/div&gt;&lt;div style=&quot;text-align: left; font-family: &amp;quot;Droid Sans Mono&amp;quot;, &amp;quot;monospace&amp;quot;, monospace; font-size: 14px; line-height: 19px;&quot;&gt;&lt;br&gt;&lt;/div&gt;&lt;div style=&quot;text-align: left; font-family: &amp;quot;Droid Sans Mono&amp;quot;, &amp;quot;monospace&amp;quot;, monospace; font-size: 14px; line-height: 19px;&quot;&gt;&lt;br&gt;&lt;/div&gt;&lt;div style=&quot;text-align: left; font-family: &amp;quot;Droid Sans Mono&amp;quot;, &amp;quot;monospace&amp;quot;, monospace; font-size: 14px; line-height: 19px;&quot;&gt;&lt;br&gt;&lt;/div&gt;&lt;div style=&quot;text-align: left; font-family: &amp;quot;Droid Sans Mono&amp;quot;, &amp;quot;monospace&amp;quot;, monospace; font-size: 14px; line-height: 19px;&quot;&gt;&lt;br&gt;&lt;/div&gt;&lt;div style=&quot;text-align: left; font-family: &amp;quot;Droid Sans Mono&amp;quot;, &amp;quot;monospace&amp;quot;, monospace; font-size: 14px; line-height: 19px;&quot;&gt;&lt;br&gt;&lt;/div&gt;&lt;div style=&quot;text-align: left; font-family: &amp;quot;Droid Sans Mono&amp;quot;, &amp;quot;monospace&amp;quot;, monospace; font-size: 14px; line-height: 19px;&quot;&gt;&lt;br&gt;&lt;/div&gt;&lt;div style=&quot;text-align: left; font-family: &amp;quot;Droid Sans Mono&amp;quot;, &amp;quot;monospace&amp;quot;, monospace; font-size: 14px; line-height: 19px;&quot;&gt;&lt;br&gt;&lt;/div&gt;&lt;div style=&quot;text-align: left; font-family: &amp;quot;Droid Sans Mono&amp;quot;, &amp;quot;monospace&amp;quot;, monospace; font-size: 14px; line-height: 19px;&quot;&gt;&lt;br&gt;&lt;/div&gt;&lt;div style=&quot;text-align: left; font-family: &amp;quot;Droid Sans Mono&amp;quot;, &amp;quot;monospace&amp;quot;, monospace; font-size: 14px; line-height: 19px;&quot;&gt;&lt;br&gt;&lt;/div&gt;&lt;div style=&quot;text-align: left; font-family: &amp;quot;Droid Sans Mono&amp;quot;, &amp;quot;monospace&amp;quot;, monospace; font-size: 14px; line-height: 19px;&quot;&gt;&lt;br&gt;&lt;/div&gt;&lt;div style=&quot;text-align: left; font-family: &amp;quot;Droid Sans Mono&amp;quot;, &amp;quot;monospace&amp;quot;, monospace; font-size: 14px; line-height: 19px;&quot;&gt;&lt;br&gt;&lt;/div&gt;&lt;div style=&quot;text-align: left; font-family: &amp;quot;Droid Sans Mono&amp;quot;, &amp;quot;monospace&amp;quot;, monospace; font-size: 14px; line-height: 19px;&quot;&gt;&lt;br&gt;&lt;/div&gt;&lt;div style=&quot;text-align: left; font-family: &amp;quot;Droid Sans Mono&amp;quot;, &amp;quot;monospace&amp;quot;, monospace; font-size: 14px; line-height: 19px;&quot;&gt;&lt;br&gt;&lt;/div&gt;&lt;div style=&quot;text-align: left; font-family: &amp;quot;Droid Sans Mono&amp;quot;, &amp;quot;monospace&amp;quot;, monospace; font-size: 14px; line-height: 19px;&quot;&gt;&lt;br&gt;&lt;/div&gt;&lt;div style=&quot;text-align: left; font-family: &amp;quot;Droid Sans Mono&amp;quot;, &amp;quot;monospace&amp;quot;, monospace; font-size: 14px; line-height: 19px;&quot;&gt;&lt;br&gt;&lt;/div&gt;&lt;div style=&quot;text-align: left; font-family: &amp;quot;Droid Sans Mono&amp;quot;, &amp;quot;monospace&amp;quot;, monospace; font-size: 14px; line-height: 19px;&quot;&gt;&lt;br&gt;&lt;/div&gt;&lt;div style=&quot;text-align: left; font-family: &amp;quot;Droid Sans Mono&amp;quot;, &amp;quot;monospace&amp;quot;, monospace; font-size: 14px; line-height: 19px;&quot;&gt;&lt;br&gt;&lt;/div&gt;" style="rounded=0;whiteSpace=wrap;html=1;fillColor=#b1ddf0;strokeColor=#10739e;" vertex="1" parent="1">
          <mxGeometry x="112.5" y="1190" width="600" height="580" as="geometry" />
        </mxCell>
        <mxCell id="QDnu9C698AicZpKBKplf-16" value="&lt;div style=&quot;font-family: &amp;quot;Droid Sans Mono&amp;quot;, &amp;quot;monospace&amp;quot;, monospace; font-size: 14px; line-height: 19px;&quot;&gt;&lt;b&gt;sequencerSDK&lt;/b&gt;&lt;/div&gt;" style="rounded=0;whiteSpace=wrap;html=1;fillColor=#b1ddf0;strokeColor=#10739e;" vertex="1" parent="1">
          <mxGeometry x="915" y="820" width="310" height="100" as="geometry" />
        </mxCell>
        <mxCell id="QDnu9C698AicZpKBKplf-17" value="&lt;b&gt;collectMovingParts&lt;/b&gt;&lt;br&gt;&lt;br&gt;(Traverses the graph to determine what parts we should move)&lt;br&gt;(Happens at the begining of every instructions)" style="shape=ext;double=1;rounded=0;whiteSpace=wrap;html=1;fillColor=#eeeeee;strokeColor=#36393d;" vertex="1" parent="1">
          <mxGeometry x="210" y="1330" width="390" height="110" as="geometry" />
        </mxCell>
        <mxCell id="QDnu9C698AicZpKBKplf-18" value="&lt;b&gt;animateParts&lt;/b&gt;&lt;br&gt;&lt;br&gt;(Starts an animation loop using requestAnimationFrame)&lt;br&gt;&lt;br&gt;&lt;br&gt;&lt;br&gt;&lt;br&gt;&lt;br&gt;&lt;br&gt;&lt;br&gt;&lt;br&gt;" style="shape=ext;double=1;rounded=0;whiteSpace=wrap;html=1;fillColor=#eeeeee;strokeColor=#36393d;" vertex="1" parent="1">
          <mxGeometry x="210" y="1480" width="390" height="220" as="geometry" />
        </mxCell>
        <mxCell id="QDnu9C698AicZpKBKplf-19" value="concludeInstruction&lt;br&gt;&lt;br&gt;(http request to mm-execution-engine to move to the next instruction" style="shape=ext;double=1;rounded=0;whiteSpace=wrap;html=1;" vertex="1" parent="1">
          <mxGeometry x="272.5" y="1590" width="280" height="80" as="geometry" />
        </mxCell>
        <mxCell id="QDnu9C698AicZpKBKplf-20" value="" style="edgeStyle=segmentEdgeStyle;endArrow=classic;html=1;curved=0;rounded=0;endSize=8;startSize=8;" edge="1" parent="1" target="QDnu9C698AicZpKBKplf-16">
          <mxGeometry width="50" height="50" relative="1" as="geometry">
            <mxPoint x="552.5" y="1630" as="sourcePoint" />
            <mxPoint x="602.5" y="1580" as="targetPoint" />
          </mxGeometry>
        </mxCell>
      </root>
    </mxGraphModel>
  </diagram>
</mxfile>
